<svg width="87" height="45" viewBox="0 0 87 45" fill="none" xmlns="http://www.w3.org/2000/svg">
<path d="M1.2642 16V1.45455H10.8949V3.99006H4.33949V7.45597H10.2557V9.99148H4.33949V16H1.2642ZM3.77131 40H0.475852L5.49716 25.4545H9.46023L14.4744 40H11.179L7.53551 28.7784H7.42188L3.77131 40ZM3.56534 34.2827H11.3494V36.6832H3.56534V34.2827Z" fill="#685CF0"/>
<path d="M12.9066 16V5.09091H15.9322V16H12.9066ZM14.4265 3.68466C13.9767 3.68466 13.5908 3.53551 13.2688 3.23722C12.9516 2.93419 12.793 2.57197 12.793 2.15057C12.793 1.7339 12.9516 1.37642 13.2688 1.07812C13.5908 0.775094 13.9767 0.623579 14.4265 0.623579C14.8763 0.623579 15.2598 0.775094 15.5771 1.07812C15.899 1.37642 16.06 1.7339 16.06 2.15057C16.06 2.57197 15.899 2.93419 15.5771 3.23722C15.2598 3.53551 14.8763 3.68466 14.4265 3.68466ZM21.3814 9.69318V16H18.3558V5.09091H21.2393V7.01562H21.3672C21.6087 6.38116 22.0135 5.87926 22.5817 5.50994C23.1499 5.13589 23.8388 4.94886 24.6484 4.94886C25.406 4.94886 26.0665 5.11458 26.63 5.44602C27.1934 5.77746 27.6314 6.25095 27.9439 6.86648C28.2564 7.47727 28.4126 8.20644 28.4126 9.05398V16H25.3871V9.59375C25.3918 8.92614 25.2214 8.4053 24.8757 8.03125C24.5301 7.65246 24.0542 7.46307 23.4482 7.46307C23.041 7.46307 22.6811 7.55066 22.3686 7.72585C22.0608 7.90104 21.8194 8.15672 21.6442 8.4929C21.4737 8.82434 21.3861 9.22443 21.3814 9.69318ZM33.908 16.206C33.212 16.206 32.5917 16.0852 32.0472 15.8438C31.5027 15.5975 31.0719 15.2353 30.7546 14.7571C30.4421 14.2741 30.2859 13.6728 30.2859 12.9531C30.2859 12.3471 30.3971 11.8381 30.6197 11.4261C30.8422 11.0142 31.1452 10.6828 31.5288 10.4318C31.9123 10.1809 32.3479 9.99148 32.8356 9.86364C33.328 9.7358 33.8441 9.64583 34.3839 9.59375C35.0183 9.52746 35.5297 9.46591 35.918 9.40909C36.3062 9.34754 36.588 9.25758 36.7631 9.1392C36.9383 9.02083 37.0259 8.84564 37.0259 8.61364V8.57102C37.0259 8.12121 36.8839 7.7732 36.5998 7.52699C36.3204 7.28078 35.9227 7.15767 35.4066 7.15767C34.8621 7.15767 34.4289 7.27841 34.1069 7.51989C33.7849 7.75663 33.5719 8.05492 33.4677 8.41477L30.6694 8.1875C30.8114 7.52462 31.0908 6.9517 31.5075 6.46875C31.9241 5.98106 32.4615 5.60701 33.1197 5.34659C33.7826 5.08144 34.5496 4.94886 35.4208 4.94886C36.0269 4.94886 36.6069 5.01989 37.1609 5.16193C37.7196 5.30398 38.2144 5.52415 38.6452 5.82244C39.0808 6.12074 39.4241 6.50426 39.6751 6.97301C39.926 7.43703 40.0515 7.99337 40.0515 8.64205V16H37.1822V14.4872H37.0969C36.9218 14.8281 36.6874 15.1288 36.3938 15.3892C36.1003 15.6449 35.7475 15.8461 35.3356 15.9929C34.9237 16.1349 34.4478 16.206 33.908 16.206ZM34.7745 14.1179C35.2196 14.1179 35.6126 14.0303 35.9535 13.8551C36.2944 13.6752 36.5619 13.4337 36.756 13.1307C36.9502 12.8277 37.0472 12.4844 37.0472 12.1009V10.9432C36.9525 11.0047 36.8223 11.0616 36.6566 11.1136C36.4956 11.161 36.3133 11.206 36.1097 11.2486C35.9061 11.2865 35.7025 11.322 35.4989 11.3551C35.2953 11.3835 35.1107 11.4096 34.945 11.4332C34.5898 11.4853 34.2797 11.5682 34.0146 11.6818C33.7494 11.7955 33.5434 11.9493 33.3967 12.1435C33.2499 12.3329 33.1765 12.5696 33.1765 12.8537C33.1765 13.2656 33.3256 13.5805 33.6239 13.7983C33.927 14.0114 34.3105 14.1179 34.7745 14.1179ZM45.4244 9.69318V16H42.3988V5.09091H45.2823V7.01562H45.4102C45.6516 6.38116 46.0565 5.87926 46.6246 5.50994C47.1928 5.13589 47.8817 4.94886 48.6914 4.94886C49.449 4.94886 50.1095 5.11458 50.6729 5.44602C51.2364 5.77746 51.6744 6.25095 51.9869 6.86648C52.2994 7.47727 52.4556 8.20644 52.4556 9.05398V16H49.43V9.59375C49.4348 8.92614 49.2643 8.4053 48.9187 8.03125C48.573 7.65246 48.0972 7.46307 47.4911 7.46307C47.0839 7.46307 46.7241 7.55066 46.4116 7.72585C46.1038 7.90104 45.8623 8.15672 45.6871 8.4929C45.5167 8.82434 45.4291 9.22443 45.4244 9.69318ZM59.7692 16.2131C58.6518 16.2131 57.6906 15.9763 56.8857 15.5028C56.0855 15.0246 55.4699 14.3617 55.0391 13.5142C54.6129 12.6667 54.3999 11.6913 54.3999 10.5881C54.3999 9.47064 54.6153 8.49053 55.0462 7.64773C55.4818 6.80019 56.0997 6.13968 56.8999 5.66619C57.7 5.18797 58.6518 4.94886 59.755 4.94886C60.7067 4.94886 61.54 5.12169 62.255 5.46733C62.9699 5.81297 63.5357 6.2983 63.9524 6.9233C64.3691 7.5483 64.5987 8.2822 64.6413 9.125H61.7862C61.7057 8.58049 61.4927 8.14252 61.147 7.81108C60.8061 7.47491 60.3587 7.30682 59.8047 7.30682C59.3359 7.30682 58.9264 7.43466 58.576 7.69034C58.2304 7.94129 57.9605 8.30824 57.7663 8.79119C57.5722 9.27415 57.4751 9.8589 57.4751 10.5455C57.4751 11.2415 57.5698 11.8333 57.7592 12.321C57.9534 12.8087 58.2256 13.1804 58.576 13.4361C58.9264 13.6918 59.3359 13.8196 59.8047 13.8196C60.1503 13.8196 60.4605 13.7486 60.7351 13.6065C61.0144 13.4645 61.2441 13.2585 61.424 12.9886C61.6087 12.714 61.7294 12.3849 61.7862 12.0014H64.6413C64.594 12.8348 64.3667 13.5687 63.9595 14.2031C63.5571 14.8329 63.0007 15.3253 62.2905 15.6804C61.5803 16.0355 60.7398 16.2131 59.7692 16.2131ZM66.5785 16V5.09091H69.604V16H66.5785ZM68.0984 3.68466C67.6486 3.68466 67.2627 3.53551 66.9407 3.23722C66.6235 2.93419 66.4648 2.57197 66.4648 2.15057C66.4648 1.7339 66.6235 1.37642 66.9407 1.07812C67.2627 0.775094 67.6486 0.623579 68.0984 0.623579C68.5482 0.623579 68.9317 0.775094 69.2489 1.07812C69.5709 1.37642 69.7319 1.7339 69.7319 2.15057C69.7319 2.57197 69.5709 2.93419 69.2489 3.23722C68.9317 3.53551 68.5482 3.68466 68.0984 3.68466ZM75.1385 16.206C74.4425 16.206 73.8222 16.0852 73.2777 15.8438C72.7332 15.5975 72.3023 15.2353 71.9851 14.7571C71.6726 14.2741 71.5163 13.6728 71.5163 12.9531C71.5163 12.3471 71.6276 11.8381 71.8501 11.4261C72.0727 11.0142 72.3757 10.6828 72.7592 10.4318C73.1428 10.1809 73.5784 9.99148 74.0661 9.86364C74.5585 9.7358 75.0746 9.64583 75.6143 9.59375C76.2488 9.52746 76.7602 9.46591 77.1484 9.40909C77.5367 9.34754 77.8184 9.25758 77.9936 9.1392C78.1688 9.02083 78.2564 8.84564 78.2564 8.61364V8.57102C78.2564 8.12121 78.1143 7.7732 77.8303 7.52699C77.5509 7.28078 77.1532 7.15767 76.6371 7.15767C76.0926 7.15767 75.6593 7.27841 75.3374 7.51989C75.0154 7.75663 74.8023 8.05492 74.6982 8.41477L71.8999 8.1875C72.0419 7.52462 72.3213 6.9517 72.7379 6.46875C73.1546 5.98106 73.692 5.60701 74.3501 5.34659C75.013 5.08144 75.7801 4.94886 76.6513 4.94886C77.2573 4.94886 77.8374 5.01989 78.3913 5.16193C78.95 5.30398 79.4448 5.52415 79.8757 5.82244C80.3113 6.12074 80.6546 6.50426 80.9055 6.97301C81.1565 7.43703 81.282 7.99337 81.282 8.64205V16H78.4126V14.4872H78.3274C78.1522 14.8281 77.9179 15.1288 77.6243 15.3892C77.3307 15.6449 76.978 15.8461 76.5661 15.9929C76.1541 16.1349 75.6783 16.206 75.1385 16.206ZM76.005 14.1179C76.45 14.1179 76.843 14.0303 77.1839 13.8551C77.5249 13.6752 77.7924 13.4337 77.9865 13.1307C78.1806 12.8277 78.2777 12.4844 78.2777 12.1009V10.9432C78.183 11.0047 78.0528 11.0616 77.8871 11.1136C77.7261 11.161 77.5438 11.206 77.3402 11.2486C77.1366 11.2865 76.933 11.322 76.7294 11.3551C76.5258 11.3835 76.3411 11.4096 76.1754 11.4332C75.8203 11.4853 75.5102 11.5682 75.245 11.6818C74.9799 11.7955 74.7739 11.9493 74.6271 12.1435C74.4804 12.3329 74.407 12.5696 74.407 12.8537C74.407 13.2656 74.5561 13.5805 74.8544 13.7983C75.1574 14.0114 75.541 14.1179 76.005 14.1179ZM86.6548 1.45455V16H83.6293V1.45455H86.6548ZM19.1939 33.6932V40H16.1683V29.0909H19.0518V31.0156H19.1797C19.4212 30.3812 19.826 29.8793 20.3942 29.5099C20.9624 29.1359 21.6513 28.9489 22.4609 28.9489C23.2185 28.9489 23.879 29.1146 24.4425 29.446C25.0059 29.7775 25.4439 30.2509 25.7564 30.8665C26.0689 31.4773 26.2251 32.2064 26.2251 33.054V40H23.1996V33.5938C23.2043 32.9261 23.0339 32.4053 22.6882 32.0312C22.3426 31.6525 21.8667 31.4631 21.2607 31.4631C20.8535 31.4631 20.4936 31.5507 20.1811 31.7259C19.8733 31.901 19.6319 32.1567 19.4567 32.4929C19.2862 32.8243 19.1986 33.2244 19.1939 33.6932ZM31.7205 40.206C31.0245 40.206 30.4042 40.0852 29.8597 39.8438C29.3152 39.5975 28.8844 39.2353 28.5671 38.7571C28.2546 38.2741 28.0984 37.6728 28.0984 36.9531C28.0984 36.3471 28.2096 35.8381 28.4322 35.4261C28.6547 35.0142 28.9577 34.6828 29.3413 34.4318C29.7248 34.1809 30.1604 33.9915 30.6481 33.8636C31.1405 33.7358 31.6566 33.6458 32.1964 33.5938C32.8308 33.5275 33.3422 33.4659 33.7305 33.4091C34.1187 33.3475 34.4005 33.2576 34.5756 33.1392C34.7508 33.0208 34.8384 32.8456 34.8384 32.6136V32.571C34.8384 32.1212 34.6964 31.7732 34.4123 31.527C34.1329 31.2808 33.7352 31.1577 33.2191 31.1577C32.6746 31.1577 32.2414 31.2784 31.9194 31.5199C31.5974 31.7566 31.3844 32.0549 31.2802 32.4148L28.4819 32.1875C28.6239 31.5246 28.9033 30.9517 29.32 30.4688C29.7366 29.9811 30.274 29.607 30.9322 29.3466C31.5951 29.0814 32.3621 28.9489 33.2333 28.9489C33.8394 28.9489 34.4194 29.0199 34.9734 29.1619C35.5321 29.304 36.0269 29.5241 36.4577 29.8224C36.8933 30.1207 37.2366 30.5043 37.4876 30.973C37.7385 31.437 37.864 31.9934 37.864 32.642V40H34.9947V38.4872H34.9094C34.7343 38.8281 34.4999 39.1288 34.2063 39.3892C33.9128 39.6449 33.56 39.8461 33.1481 39.9929C32.7362 40.1349 32.2603 40.206 31.7205 40.206ZM32.587 38.1179C33.0321 38.1179 33.4251 38.0303 33.766 37.8551C34.1069 37.6752 34.3744 37.4337 34.5685 37.1307C34.7627 36.8277 34.8597 36.4844 34.8597 36.1009V34.9432C34.765 35.0047 34.6348 35.0616 34.4691 35.1136C34.3081 35.161 34.1258 35.206 33.9222 35.2486C33.7186 35.2865 33.515 35.322 33.3114 35.3551C33.1078 35.3835 32.9232 35.4096 32.7575 35.4332C32.4023 35.4853 32.0922 35.5682 31.8271 35.6818C31.5619 35.7955 31.3559 35.9493 31.2092 36.1435C31.0624 36.3329 30.989 36.5696 30.989 36.8537C30.989 37.2656 31.1381 37.5805 31.4364 37.7983C31.7395 38.0114 32.123 38.1179 32.587 38.1179ZM43.2369 25.4545V40H40.2113V25.4545H43.2369ZM47.5284 44.0909C47.1449 44.0909 46.785 44.0601 46.4489 43.9986C46.1174 43.9418 45.8428 43.8684 45.625 43.7784L46.3068 41.5199C46.6619 41.6288 46.9815 41.688 47.2656 41.6974C47.5545 41.7069 47.803 41.6406 48.0114 41.4986C48.2244 41.3565 48.3973 41.1151 48.5298 40.7741L48.7074 40.3125L44.794 29.0909H47.9759L50.2344 37.1023H50.348L52.6278 29.0909H55.831L51.5909 41.179C51.3873 41.7661 51.1103 42.2775 50.7599 42.7131C50.4143 43.1534 49.9763 43.492 49.446 43.7287C48.9157 43.9702 48.2765 44.0909 47.5284 44.0909ZM66.456 32.2017L63.6861 32.3722C63.6387 32.1354 63.5369 31.9223 63.3807 31.733C63.2244 31.5388 63.0185 31.3849 62.7628 31.2713C62.5118 31.1529 62.2112 31.0938 61.8608 31.0938C61.392 31.0938 60.9967 31.1932 60.6747 31.392C60.3527 31.5862 60.1918 31.8466 60.1918 32.1733C60.1918 32.4337 60.2959 32.6539 60.5043 32.8338C60.7126 33.0137 61.0701 33.1581 61.5767 33.267L63.5511 33.6648C64.6117 33.8826 65.4025 34.233 65.9233 34.7159C66.4441 35.1989 66.7045 35.8333 66.7045 36.6193C66.7045 37.3343 66.4938 37.9616 66.0724 38.5014C65.6558 39.0412 65.0829 39.4626 64.3537 39.7656C63.6293 40.0639 62.7936 40.2131 61.8466 40.2131C60.4025 40.2131 59.2519 39.9124 58.3949 39.3111C57.5426 38.705 57.0431 37.8812 56.8963 36.8395L59.8722 36.6832C59.9621 37.1236 60.1799 37.4598 60.5256 37.6918C60.8712 37.919 61.3139 38.0327 61.8537 38.0327C62.384 38.0327 62.8101 37.9309 63.1321 37.7273C63.4588 37.5189 63.6245 37.2514 63.6293 36.9247C63.6245 36.6501 63.5085 36.4252 63.2812 36.25C63.054 36.0701 62.7036 35.9328 62.2301 35.8381L60.3409 35.4616C59.2756 35.2486 58.4825 34.8793 57.9616 34.3537C57.4455 33.8281 57.1875 33.1581 57.1875 32.3438C57.1875 31.643 57.3769 31.0393 57.7557 30.5327C58.1392 30.026 58.6766 29.6354 59.3679 29.3608C60.0639 29.0862 60.8783 28.9489 61.8111 28.9489C63.1889 28.9489 64.2732 29.2401 65.0639 29.8224C65.8594 30.4048 66.3234 31.1979 66.456 32.2017ZM74.4123 29.0909V31.3636H67.8427V29.0909H74.4123ZM69.3342 26.4773H72.3597V36.6477C72.3597 36.9271 72.4023 37.1449 72.4876 37.3011C72.5728 37.4527 72.6912 37.5592 72.8427 37.6207C72.9989 37.6823 73.1789 37.7131 73.3825 37.7131C73.5245 37.7131 73.6665 37.7012 73.8086 37.6776C73.9506 37.6491 74.0595 37.6278 74.1353 37.6136L74.6112 39.8651C74.4596 39.9124 74.2466 39.9669 73.9719 40.0284C73.6973 40.0947 73.3635 40.1349 72.9705 40.1491C72.2414 40.1776 71.6022 40.0805 71.0529 39.858C70.5084 39.6354 70.0846 39.2898 69.7816 38.821C69.4786 38.3523 69.3294 37.7604 69.3342 37.0455V26.4773Z" fill="black"/>
</svg>
